<svg width="289" height="37" viewBox="0 0 289 37" fill="none" xmlns="http://www.w3.org/2000/svg">
<path d="M1 18.2076H25" stroke="#1E9AD3" stroke-width="2" stroke-linecap="round"/>
<path d="M44.3949 27.2076L39.4688 9.7531H42.8693L46.0142 22.5798H46.1761L49.5341 9.7531H52.6278L55.9943 22.5883H56.1477L59.2926 9.7531H62.6932L57.767 27.2076H54.6477L51.1534 14.9605H51.017L47.5142 27.2076H44.3949ZM69.2088 27.4633C67.8963 27.4633 66.7628 27.1906 65.8082 26.6451C64.8594 26.094 64.1293 25.3156 63.6179 24.3099C63.1065 23.2986 62.8509 22.1082 62.8509 20.7389C62.8509 19.3923 63.1065 18.2105 63.6179 17.1934C64.1349 16.1707 64.8565 15.3753 65.7827 14.8071C66.7088 14.2332 67.7969 13.9463 69.0469 13.9463C69.8537 13.9463 70.6151 14.077 71.331 14.3383C72.0526 14.594 72.6889 14.9917 73.2401 15.5315C73.7969 16.0713 74.2344 16.7588 74.5526 17.594C74.8707 18.4236 75.0298 19.4122 75.0298 20.5599V21.5059H64.2997V19.4264H72.0724C72.0668 18.8355 71.9389 18.3099 71.6889 17.8497C71.4389 17.3838 71.0895 17.0173 70.6406 16.7503C70.1974 16.4832 69.6804 16.3497 69.0895 16.3497C68.4588 16.3497 67.9048 16.5031 67.4276 16.8099C66.9503 17.1111 66.5781 17.5088 66.3111 18.0031C66.0497 18.4917 65.9162 19.0287 65.9105 19.6139V21.4292C65.9105 22.1906 66.0497 22.844 66.3281 23.3895C66.6065 23.9292 66.9957 24.344 67.4957 24.6338C67.9957 24.9179 68.581 25.0599 69.2514 25.0599C69.7003 25.0599 70.1065 24.9974 70.4702 24.8724C70.8338 24.7417 71.1491 24.5514 71.4162 24.3014C71.6832 24.0514 71.8849 23.7417 72.0213 23.3724L74.902 23.6963C74.7202 24.4576 74.3736 25.1224 73.8622 25.6906C73.3565 26.2531 72.7088 26.6906 71.919 27.0031C71.1293 27.3099 70.2259 27.4633 69.2088 27.4633ZM80.7251 9.7531V27.2076H77.6399V9.7531H80.7251ZM89.608 27.4633C88.3011 27.4633 87.179 27.1764 86.2415 26.6025C85.3097 26.0287 84.5909 25.2361 84.0852 24.2247C83.5852 23.2076 83.3352 22.0372 83.3352 20.7133C83.3352 19.3838 83.5909 18.2105 84.1023 17.1934C84.6136 16.1707 85.3352 15.3753 86.267 14.8071C87.2045 14.2332 88.3125 13.9463 89.5909 13.9463C90.6534 13.9463 91.5938 14.1423 92.4119 14.5343C93.2358 14.9207 93.892 15.469 94.3807 16.1792C94.8693 16.8838 95.1477 17.7076 95.2159 18.6508H92.267C92.1477 18.0201 91.8636 17.4946 91.4148 17.0741C90.9716 16.648 90.3778 16.4349 89.6335 16.4349C89.0028 16.4349 88.4489 16.6054 87.9716 16.9463C87.4943 17.2815 87.1222 17.7645 86.8551 18.3951C86.5938 19.0258 86.4631 19.7815 86.4631 20.6622C86.4631 21.5542 86.5938 22.3213 86.8551 22.9633C87.1165 23.5997 87.483 24.0912 87.9545 24.4378C88.4318 24.7787 88.9915 24.9491 89.6335 24.9491C90.0881 24.9491 90.4943 24.8639 90.8523 24.6934C91.2159 24.5173 91.5199 24.2645 91.7642 23.9349C92.0085 23.6054 92.1761 23.2048 92.267 22.7332H95.2159C95.142 23.6593 94.8693 24.4804 94.3977 25.1963C93.9261 25.9065 93.2841 26.4633 92.4716 26.8667C91.6591 27.2645 90.7045 27.4633 89.608 27.4633ZM103.46 27.4633C102.181 27.4633 101.073 27.1821 100.136 26.6196C99.1982 26.0571 98.4709 25.2701 97.9538 24.2588C97.4425 23.2474 97.1868 22.0656 97.1868 20.7133C97.1868 19.3611 97.4425 18.1764 97.9538 17.1593C98.4709 16.1423 99.1982 15.3525 100.136 14.79C101.073 14.2275 102.181 13.9463 103.46 13.9463C104.738 13.9463 105.846 14.2275 106.783 14.79C107.721 15.3525 108.445 16.1423 108.957 17.1593C109.474 18.1764 109.732 19.3611 109.732 20.7133C109.732 22.0656 109.474 23.2474 108.957 24.2588C108.445 25.2701 107.721 26.0571 106.783 26.6196C105.846 27.1821 104.738 27.4633 103.46 27.4633ZM103.477 24.9917C104.17 24.9917 104.749 24.8014 105.215 24.4207C105.681 24.0343 106.028 23.5173 106.255 22.8696C106.488 22.2218 106.604 21.5003 106.604 20.7048C106.604 19.9037 106.488 19.1792 106.255 18.5315C106.028 17.8781 105.681 17.3582 105.215 16.9718C104.749 16.5855 104.17 16.3923 103.477 16.3923C102.766 16.3923 102.175 16.5855 101.704 16.9718C101.238 17.3582 100.888 17.8781 100.656 18.5315C100.428 19.1792 100.315 19.9037 100.315 20.7048C100.315 21.5003 100.428 22.2218 100.656 22.8696C100.888 23.5173 101.238 24.0343 101.704 24.4207C102.175 24.8014 102.766 24.9917 103.477 24.9917ZM112.351 27.2076V14.1167H115.3V16.3412H115.453C115.726 15.5912 116.178 15.0059 116.808 14.5855C117.439 14.1593 118.192 13.9463 119.067 13.9463C119.953 13.9463 120.7 14.1622 121.308 14.594C121.922 15.0201 122.354 15.6025 122.604 16.3412H122.74C123.03 15.6139 123.518 15.0343 124.206 14.6025C124.899 14.165 125.72 13.9463 126.669 13.9463C127.874 13.9463 128.857 14.327 129.618 15.0883C130.379 15.8497 130.76 16.9605 130.76 18.4207V27.2076H127.666V18.898C127.666 18.0855 127.45 17.4917 127.018 17.1167C126.587 16.7361 126.058 16.5457 125.433 16.5457C124.689 16.5457 124.107 16.7787 123.686 17.2446C123.271 17.7048 123.064 18.3042 123.064 19.0429V27.2076H120.038V18.7701C120.038 18.094 119.834 17.5542 119.425 17.1508C119.021 16.7474 118.493 16.5457 117.839 16.5457C117.396 16.5457 116.993 16.6593 116.629 16.8866C116.266 17.1082 115.976 17.4236 115.76 17.8326C115.544 18.2361 115.436 18.7076 115.436 19.2474V27.2076H112.351ZM139.685 27.4633C138.373 27.4633 137.239 27.1906 136.285 26.6451C135.336 26.094 134.606 25.3156 134.094 24.3099C133.583 23.2986 133.327 22.1082 133.327 20.7389C133.327 19.3923 133.583 18.2105 134.094 17.1934C134.612 16.1707 135.333 15.3753 136.259 14.8071C137.185 14.2332 138.273 13.9463 139.523 13.9463C140.33 13.9463 141.092 14.077 141.808 14.3383C142.529 14.594 143.165 14.9917 143.717 15.5315C144.273 16.0713 144.711 16.7588 145.029 17.594C145.347 18.4236 145.506 19.4122 145.506 20.5599V21.5059H134.776V19.4264H142.549C142.543 18.8355 142.415 18.3099 142.165 17.8497C141.915 17.3838 141.566 17.0173 141.117 16.7503C140.674 16.4832 140.157 16.3497 139.566 16.3497C138.935 16.3497 138.381 16.5031 137.904 16.8099C137.427 17.1111 137.055 17.5088 136.788 18.0031C136.526 18.4917 136.393 19.0287 136.387 19.6139V21.4292C136.387 22.1906 136.526 22.844 136.805 23.3895C137.083 23.9292 137.472 24.344 137.972 24.6338C138.472 24.9179 139.058 25.0599 139.728 25.0599C140.177 25.0599 140.583 24.9974 140.947 24.8724C141.31 24.7417 141.626 24.5514 141.893 24.3014C142.16 24.0514 142.362 23.7417 142.498 23.3724L145.379 23.6963C145.197 24.4576 144.85 25.1224 144.339 25.6906C143.833 26.2531 143.185 26.6906 142.396 27.0031C141.606 27.3099 140.702 27.4633 139.685 27.4633ZM153.439 12.4037V9.7531H167.365V12.4037H161.97V27.2076H158.834V12.4037H153.439ZM173.81 27.4633C172.498 27.4633 171.364 27.1906 170.41 26.6451C169.461 26.094 168.731 25.3156 168.219 24.3099C167.708 23.2986 167.452 22.1082 167.452 20.7389C167.452 19.3923 167.708 18.2105 168.219 17.1934C168.737 16.1707 169.458 15.3753 170.384 14.8071C171.31 14.2332 172.398 13.9463 173.648 13.9463C174.455 13.9463 175.217 14.077 175.933 14.3383C176.654 14.594 177.29 14.9917 177.842 15.5315C178.398 16.0713 178.836 16.7588 179.154 17.594C179.472 18.4236 179.631 19.4122 179.631 20.5599V21.5059H168.901V19.4264H176.674C176.668 18.8355 176.54 18.3099 176.29 17.8497C176.04 17.3838 175.691 17.0173 175.242 16.7503C174.799 16.4832 174.282 16.3497 173.691 16.3497C173.06 16.3497 172.506 16.5031 172.029 16.8099C171.552 17.1111 171.18 17.5088 170.913 18.0031C170.651 18.4917 170.518 19.0287 170.512 19.6139V21.4292C170.512 22.1906 170.651 22.844 170.93 23.3895C171.208 23.9292 171.597 24.344 172.097 24.6338C172.597 24.9179 173.183 25.0599 173.853 25.0599C174.302 25.0599 174.708 24.9974 175.072 24.8724C175.435 24.7417 175.751 24.5514 176.018 24.3014C176.285 24.0514 176.487 23.7417 176.623 23.3724L179.504 23.6963C179.322 24.4576 178.975 25.1224 178.464 25.6906C177.958 26.2531 177.31 26.6906 176.521 27.0031C175.731 27.3099 174.827 27.4633 173.81 27.4633ZM187.952 27.4633C186.645 27.4633 185.523 27.1764 184.585 26.6025C183.653 26.0287 182.935 25.2361 182.429 24.2247C181.929 23.2076 181.679 22.0372 181.679 20.7133C181.679 19.3838 181.935 18.2105 182.446 17.1934C182.957 16.1707 183.679 15.3753 184.611 14.8071C185.548 14.2332 186.656 13.9463 187.935 13.9463C188.997 13.9463 189.938 14.1423 190.756 14.5343C191.58 14.9207 192.236 15.469 192.724 16.1792C193.213 16.8838 193.491 17.7076 193.56 18.6508H190.611C190.491 18.0201 190.207 17.4946 189.759 17.0741C189.315 16.648 188.722 16.4349 187.977 16.4349C187.347 16.4349 186.793 16.6054 186.315 16.9463C185.838 17.2815 185.466 17.7645 185.199 18.3951C184.938 19.0258 184.807 19.7815 184.807 20.6622C184.807 21.5542 184.938 22.3213 185.199 22.9633C185.46 23.5997 185.827 24.0912 186.298 24.4378C186.776 24.7787 187.335 24.9491 187.977 24.9491C188.432 24.9491 188.838 24.8639 189.196 24.6934C189.56 24.5173 189.864 24.2645 190.108 23.9349C190.352 23.6054 190.52 23.2048 190.611 22.7332H193.56C193.486 23.6593 193.213 24.4804 192.741 25.1963C192.27 25.9065 191.628 26.4633 190.815 26.8667C190.003 27.2645 189.048 27.4633 187.952 27.4633ZM199.178 19.5372V27.2076H196.093V14.1167H199.042V16.3412H199.195C199.496 15.6082 199.977 15.0258 200.636 14.594C201.3 14.1622 202.121 13.9463 203.099 13.9463C204.002 13.9463 204.789 14.1395 205.46 14.5258C206.136 14.9122 206.658 15.4718 207.028 16.2048C207.403 16.9378 207.587 17.827 207.582 18.8724V27.2076H204.496V19.3497C204.496 18.4747 204.269 17.79 203.815 17.2957C203.366 16.8014 202.744 16.5542 201.948 16.5542C201.408 16.5542 200.928 16.6736 200.508 16.9122C200.093 17.1451 199.766 17.4832 199.528 17.9264C199.295 18.3696 199.178 18.9065 199.178 19.5372ZM216.428 27.4633C215.15 27.4633 214.042 27.1821 213.104 26.6196C212.167 26.0571 211.44 25.2701 210.923 24.2588C210.411 23.2474 210.156 22.0656 210.156 20.7133C210.156 19.3611 210.411 18.1764 210.923 17.1593C211.44 16.1423 212.167 15.3525 213.104 14.79C214.042 14.2275 215.15 13.9463 216.428 13.9463C217.707 13.9463 218.815 14.2275 219.752 14.79C220.69 15.3525 221.414 16.1423 221.925 17.1593C222.442 18.1764 222.701 19.3611 222.701 20.7133C222.701 22.0656 222.442 23.2474 221.925 24.2588C221.414 25.2701 220.69 26.0571 219.752 26.6196C218.815 27.1821 217.707 27.4633 216.428 27.4633ZM216.445 24.9917C217.138 24.9917 217.718 24.8014 218.184 24.4207C218.65 24.0343 218.996 23.5173 219.224 22.8696C219.457 22.2218 219.573 21.5003 219.573 20.7048C219.573 19.9037 219.457 19.1792 219.224 18.5315C218.996 17.8781 218.65 17.3582 218.184 16.9718C217.718 16.5855 217.138 16.3923 216.445 16.3923C215.735 16.3923 215.144 16.5855 214.673 16.9718C214.207 17.3582 213.857 17.8781 213.624 18.5315C213.397 19.1792 213.283 19.9037 213.283 20.7048C213.283 21.5003 213.397 22.2218 213.624 22.8696C213.857 23.5173 214.207 24.0343 214.673 24.4207C215.144 24.8014 215.735 24.9917 216.445 24.9917ZM225.456 27.2076V9.7531H228.541V16.2815H228.669C228.828 15.9633 229.053 15.6253 229.342 15.2673C229.632 14.9037 230.024 14.594 230.518 14.3383C231.013 14.077 231.643 13.9463 232.411 13.9463C233.422 13.9463 234.334 14.2048 235.146 14.7218C235.964 15.2332 236.612 15.9917 237.089 16.9974C237.572 17.9974 237.814 19.2247 237.814 20.6792C237.814 22.1167 237.578 23.3383 237.107 24.344C236.635 25.3497 235.993 26.1167 235.18 26.6451C234.368 27.1736 233.447 27.4378 232.419 27.4378C231.669 27.4378 231.047 27.3128 230.553 27.0628C230.058 26.8128 229.661 26.5116 229.359 26.1593C229.064 25.8014 228.834 25.4633 228.669 25.1451H228.49V27.2076H225.456ZM228.482 20.6622C228.482 21.5088 228.601 22.2503 228.839 22.8866C229.084 23.523 229.433 24.0201 229.888 24.3781C230.348 24.7304 230.905 24.9065 231.558 24.9065C232.24 24.9065 232.811 24.7247 233.271 24.3611C233.732 23.9917 234.078 23.4889 234.311 22.8525C234.55 22.2105 234.669 21.4804 234.669 20.6622C234.669 19.8497 234.553 19.1281 234.32 18.4974C234.087 17.8667 233.74 17.3724 233.28 17.0145C232.82 16.6565 232.246 16.4775 231.558 16.4775C230.899 16.4775 230.339 16.6508 229.879 16.9974C229.419 17.344 229.07 17.8298 228.831 18.4548C228.598 19.0798 228.482 19.8156 228.482 20.6622ZM246.232 27.4633C244.92 27.4633 243.786 27.1906 242.832 26.6451C241.883 26.094 241.153 25.3156 240.641 24.3099C240.13 23.2986 239.874 22.1082 239.874 20.7389C239.874 19.3923 240.13 18.2105 240.641 17.1934C241.158 16.1707 241.88 15.3753 242.806 14.8071C243.732 14.2332 244.82 13.9463 246.07 13.9463C246.877 13.9463 247.638 14.077 248.354 14.3383C249.076 14.594 249.712 14.9917 250.263 15.5315C250.82 16.0713 251.258 16.7588 251.576 17.594C251.894 18.4236 252.053 19.4122 252.053 20.5599V21.5059H241.323V19.4264H249.096C249.09 18.8355 248.962 18.3099 248.712 17.8497C248.462 17.3838 248.113 17.0173 247.664 16.7503C247.221 16.4832 246.704 16.3497 246.113 16.3497C245.482 16.3497 244.928 16.5031 244.451 16.8099C243.974 17.1111 243.602 17.5088 243.335 18.0031C243.073 18.4917 242.94 19.0287 242.934 19.6139V21.4292C242.934 22.1906 243.073 22.844 243.352 23.3895C243.63 23.9292 244.019 24.344 244.519 24.6338C245.019 24.9179 245.604 25.0599 246.275 25.0599C246.724 25.0599 247.13 24.9974 247.494 24.8724C247.857 24.7417 248.173 24.5514 248.44 24.3014C248.707 24.0514 248.908 23.7417 249.045 23.3724L251.925 23.6963C251.744 24.4576 251.397 25.1224 250.886 25.6906C250.38 26.2531 249.732 26.6906 248.942 27.0031C248.153 27.3099 247.249 27.4633 246.232 27.4633ZM257.749 9.7531V27.2076H254.663V9.7531H257.749ZM260.921 27.2076V14.1167H264.006V27.2076H260.921ZM262.472 12.2588C261.984 12.2588 261.563 12.0968 261.211 11.773C260.859 11.4434 260.683 11.0485 260.683 10.5883C260.683 10.1224 260.859 9.72753 261.211 9.40366C261.563 9.07412 261.984 8.90935 262.472 8.90935C262.967 8.90935 263.387 9.07412 263.734 9.40366C264.086 9.72753 264.262 10.1224 264.262 10.5883C264.262 11.0485 264.086 11.4434 263.734 11.773C263.387 12.0968 262.967 12.2588 262.472 12.2588ZM273.716 14.1167V16.5031H266.19V14.1167H273.716ZM268.048 10.9804H271.134V23.2701C271.134 23.6849 271.196 24.0031 271.321 24.2247C271.452 24.4406 271.622 24.5883 271.832 24.6679C272.043 24.7474 272.276 24.7872 272.531 24.7872C272.724 24.7872 272.901 24.773 273.06 24.7446C273.224 24.7162 273.349 24.6906 273.435 24.6679L273.955 27.0798C273.79 27.1366 273.554 27.1991 273.247 27.2673C272.946 27.3355 272.577 27.3753 272.139 27.3866C271.366 27.4093 270.67 27.2929 270.051 27.0372C269.432 26.7758 268.94 26.3724 268.577 25.827C268.219 25.2815 268.043 24.5997 268.048 23.7815V10.9804ZM281.951 27.4633C280.638 27.4633 279.505 27.1906 278.55 26.6451C277.602 26.094 276.871 25.3156 276.36 24.3099C275.849 23.2986 275.593 22.1082 275.593 20.7389C275.593 19.3923 275.849 18.2105 276.36 17.1934C276.877 16.1707 277.599 15.3753 278.525 14.8071C279.451 14.2332 280.539 13.9463 281.789 13.9463C282.596 13.9463 283.357 14.077 284.073 14.3383C284.795 14.594 285.431 14.9917 285.982 15.5315C286.539 16.0713 286.977 16.7588 287.295 17.594C287.613 18.4236 287.772 19.4122 287.772 20.5599V21.5059H277.042V19.4264H284.815C284.809 18.8355 284.681 18.3099 284.431 17.8497C284.181 17.3838 283.832 17.0173 283.383 16.7503C282.94 16.4832 282.423 16.3497 281.832 16.3497C281.201 16.3497 280.647 16.5031 280.17 16.8099C279.692 17.1111 279.32 17.5088 279.053 18.0031C278.792 18.4917 278.658 19.0287 278.653 19.6139V21.4292C278.653 22.1906 278.792 22.844 279.07 23.3895C279.349 23.9292 279.738 24.344 280.238 24.6338C280.738 24.9179 281.323 25.0599 281.994 25.0599C282.442 25.0599 282.849 24.9974 283.212 24.8724C283.576 24.7417 283.891 24.5514 284.158 24.3014C284.425 24.0514 284.627 23.7417 284.763 23.3724L287.644 23.6963C287.462 24.4576 287.116 25.1224 286.604 25.6906C286.099 26.2531 285.451 26.6906 284.661 27.0031C283.871 27.3099 282.968 27.4633 281.951 27.4633Z" fill="#1E9AD3"/>
</svg>
