<svg width="220" height="32" viewBox="0 0 220 32" fill="none" xmlns="http://www.w3.org/2000/svg">
<path d="M105.771 12.9433C105.627 13.7561 105.641 14.3773 105.813 14.8068C105.798 17.0286 105.82 19.2023 105.88 21.3278C105.928 22.9645 106.109 24.2114 106.424 25.0687C107.774 28.7457 110.443 30.2815 114.286 30.3121C117.586 30.338 120.888 30.3472 124.193 30.3398C126.326 30.3361 128.075 29.5604 129.442 28.0125C132.441 24.616 132.594 20.2669 129.308 16.9481C127.55 15.1707 125.867 14.768 123.221 14.7874C119.688 14.8124 116.133 15.0235 112.615 14.5624C112.565 14.5559 112.519 14.5342 112.482 14.5003C112.446 14.4664 112.421 14.4221 112.412 14.3736C112.209 13.3155 112.937 13.0433 113.842 13.0405C117.449 13.0294 121.056 13.0294 124.665 13.0405C125.492 13.0424 126.217 13.1498 126.839 13.3627C131.355 14.9068 133.53 18.246 133.363 23.3801C133.233 27.4127 129.431 31.984 125.234 31.9367C120.024 31.8812 116.819 31.9923 113.184 31.9506C110.432 31.9173 108.824 31.2563 107.002 29.3234C105.298 27.5182 104.405 25.4436 104.322 23.0996C104.225 20.3298 104.159 17.5119 104.122 14.6458L104.108 12.9628C104.086 9.1302 104.148 5.29857 104.294 1.46785C104.305 1.10959 104.519 0.415281 104.797 0.170886C105.087 -0.0864701 105.346 -0.053139 105.571 0.27087C106.085 1.00406 105.874 2.25936 105.866 3.0342C105.827 6.39834 105.796 9.70139 105.771 12.9433Z" fill="#1E9AD3"/>
<path d="M163.357 28.9346H168.19C168.302 28.9346 168.359 28.9911 168.359 29.104L168.348 31.5063C168.348 31.597 168.302 31.6424 168.209 31.6424H154.951C154.858 31.6424 154.812 31.5961 154.812 31.5035V29.0318C154.812 28.9596 154.848 28.9235 154.92 28.9235L159.73 28.9401C159.913 28.9401 160.005 28.8494 160.005 28.668L160.055 6.81957C160.057 6.44372 159.871 6.27338 159.497 6.30856L156.303 6.6085C156.207 6.61776 156.159 6.57333 156.159 6.4752L156.15 4.05901C156.15 3.96459 156.197 3.91182 156.289 3.90071C157.828 3.71741 159.372 3.60818 160.922 3.573C162.466 3.53689 163.21 4.75332 163.21 6.17803C163.204 13.7173 163.207 21.2565 163.218 28.7957C163.218 28.8883 163.265 28.9346 163.357 28.9346Z" fill="#1E9AD3"/>
<path d="M177.796 9.93823C179.306 9.92241 180.519 8.73214 180.504 7.2797C180.488 5.82725 179.251 4.66264 177.741 4.67846C176.23 4.69428 175.018 5.88454 175.033 7.33699C175.048 8.78943 176.285 9.95405 177.796 9.93823Z" fill="#1E9AD3"/>
<path d="M12.3475 7.77491L12.2781 31.4896C12.2781 31.5124 12.269 31.5343 12.2529 31.5505C12.2367 31.5666 12.2148 31.5757 12.192 31.5757L9.38979 31.5729C9.36696 31.5729 9.34506 31.5638 9.32891 31.5477C9.31277 31.5316 9.30369 31.5097 9.30369 31.4868V7.77491C9.30369 7.75208 9.29462 7.73018 9.27848 7.71404C9.26233 7.69789 9.24043 7.68882 9.2176 7.68882H0.0860939C0.0632604 7.68882 0.0413618 7.67975 0.0252161 7.66361C0.00907037 7.64746 0 7.62556 0 7.60273V5.13655C0 5.11372 0.00907037 5.09182 0.0252161 5.07568C0.0413618 5.05953 0.0632604 5.05046 0.0860939 5.05046H21.3679C21.3908 5.05046 21.4127 5.05953 21.4288 5.07568C21.445 5.09182 21.454 5.11372 21.454 5.13655V7.60273C21.454 7.62556 21.445 7.64746 21.4288 7.66361C21.4127 7.67975 21.3908 7.68882 21.3679 7.68882H12.4336C12.4223 7.68882 12.4111 7.69105 12.4007 7.69537C12.3902 7.6997 12.3807 7.70604 12.3727 7.71404C12.3648 7.72203 12.3584 7.73152 12.3541 7.74197C12.3498 7.75242 12.3475 7.76361 12.3475 7.77491Z" fill="#242F63"/>
<path d="M189.035 15.5345H185.353C185.242 15.5345 185.185 15.4799 185.183 15.3706L185.142 13.3572C185.136 13.0498 185.287 12.8961 185.594 12.8961H189.03C189.115 12.8961 189.158 12.8536 189.16 12.7684L189.227 8.20819C189.227 8.12117 189.27 8.0647 189.355 8.03878L192.101 7.21116C192.133 7.20161 192.166 7.1996 192.199 7.20529C192.231 7.21098 192.262 7.22421 192.289 7.24393C192.315 7.26365 192.337 7.28929 192.351 7.31881C192.366 7.34833 192.374 7.3809 192.374 7.4139V12.7573C192.374 12.8498 192.42 12.8961 192.512 12.8961H198.075C198.104 12.8961 198.132 12.9018 198.158 12.9128C198.184 12.9238 198.208 12.9399 198.227 12.9601C198.247 12.9803 198.263 13.0043 198.273 13.0305C198.283 13.0567 198.287 13.0847 198.286 13.1128L198.225 15.3873C198.223 15.4854 198.173 15.5345 198.075 15.5345H192.51C192.472 15.5345 192.436 15.5494 192.41 15.576C192.383 15.6025 192.368 15.6386 192.368 15.6761L192.374 29.0596C192.374 29.0851 192.379 29.1103 192.389 29.1338C192.399 29.1573 192.414 29.1785 192.433 29.1961C192.451 29.2138 192.473 29.2275 192.498 29.2365C192.522 29.2455 192.548 29.2495 192.574 29.2484L198.803 28.954C198.914 28.9485 198.969 29.0012 198.969 29.1123V31.423C198.969 31.5063 198.928 31.5526 198.844 31.5618C196.425 31.8136 193.999 31.9405 191.568 31.9423C189.999 31.9423 189.196 30.9508 189.196 29.4178C189.191 24.8391 189.183 20.2576 189.174 15.6734C189.174 15.5808 189.128 15.5345 189.035 15.5345Z" fill="#1E9AD3"/>
<path d="M21.1735 23.0608C21.5734 25.9269 22.5594 28.2375 25.5615 29.104C28.8248 30.0427 32.5324 28.8429 33.4072 25.202C33.4313 25.0983 33.497 25.0465 33.6044 25.0465H36.3816C36.4705 25.0465 36.5038 25.09 36.4816 25.177C35.2346 30.3593 30.9438 32.5255 25.9059 31.8257C22.2548 31.3165 19.8747 29.3743 18.7657 25.9991C17.0244 20.7085 18.8046 14.1709 24.8561 12.8212C26.0503 12.5545 27.4417 12.5425 29.0303 12.7851C34.2654 13.5849 36.1789 17.8674 35.9595 22.697C35.9539 22.7932 35.903 22.8414 35.8067 22.8414L21.3013 22.9136C21.2032 22.9154 21.1606 22.9645 21.1735 23.0608ZM21.2152 20.5668L32.9739 20.4835C32.9816 20.4828 32.9886 20.4793 32.9938 20.4736C32.9989 20.468 33.0017 20.4606 33.0017 20.453V20.4474C32.9919 19.0591 32.4039 17.7318 31.3669 16.7573C30.33 15.7829 28.929 15.2411 27.4723 15.2512L26.6391 15.2568C25.1825 15.2675 23.7896 15.8291 22.7667 16.8181C21.7438 17.8072 21.1748 19.1426 21.1846 20.5307V20.5363C21.1846 20.5403 21.1854 20.5443 21.187 20.548C21.1885 20.5517 21.1908 20.555 21.1936 20.5579C21.1964 20.5607 21.1998 20.563 21.2035 20.5645C21.2072 20.566 21.2112 20.5668 21.2152 20.5668Z" fill="#242F63"/>
<path d="M48.8791 31.9118C37.1371 31.3313 36.9232 13.6932 48.4792 12.6323C53.2394 12.1935 57.7218 14.743 58.2439 19.8947C58.255 19.9966 58.2088 20.0475 58.1051 20.0475H55.2723C55.1631 20.0475 55.102 19.9929 55.089 19.8836C54.5919 15.7761 50.5538 14.3903 47.0573 15.6789C40.8835 17.9534 41.9611 29.3151 49.3957 29.2901C52.4784 29.2817 54.7141 27.8181 55.1029 24.6354C55.114 24.5392 55.1677 24.491 55.264 24.491H58.1051C58.1847 24.491 58.2226 24.5308 58.2189 24.6104C57.9329 29.5539 53.5227 32.1395 48.8791 31.9118Z" fill="#242F63"/>
<path d="M73.0752 15.2734C68.3345 14.8874 65.6878 18.7116 65.6295 23.0524C65.5906 25.8426 65.5804 28.6337 65.5989 31.4257C65.5989 31.5239 65.5499 31.5729 65.4517 31.5729H62.6717C62.5773 31.5729 62.5301 31.5248 62.5301 31.4285L62.544 13.1711C62.544 13.0803 62.5893 13.035 62.6801 13.035H65.4434C65.5156 13.035 65.5545 13.0711 65.5601 13.1433C65.6934 14.8115 65.5832 16.463 65.2296 18.0979C65.2115 18.174 65.2223 18.2541 65.2598 18.3228C65.2974 18.3915 65.359 18.4438 65.4329 18.4697C65.5068 18.4956 65.5876 18.4932 65.6598 18.463C65.732 18.4328 65.7905 18.3769 65.8239 18.3061C66.1109 17.7229 66.371 17.174 66.6043 16.6592C67.7078 14.206 69.575 12.8637 72.2059 12.6323C76.544 12.249 79.9683 14.493 80.0766 19.131C80.1284 21.3028 80.1321 25.4075 80.0877 31.4452C80.0858 31.5303 80.0423 31.5729 79.9572 31.5729H77.2633C77.1688 31.5729 77.1216 31.5257 77.1216 31.4313C77.1161 27.9598 77.1142 24.4892 77.1161 21.0195C77.1189 18.1173 76.4662 15.5511 73.0752 15.2734Z" fill="#242F63"/>
<path d="M137.629 23.0996C138.379 27.3015 140.292 29.8038 145.03 29.2956C147.621 29.0179 149.236 27.6181 149.877 25.0964C149.897 25.0168 149.948 24.977 150.029 24.977H152.868C152.955 24.977 152.988 25.0196 152.968 25.1047C151.757 30.0843 147.688 32.4977 142.728 31.9145C136.732 31.2091 134.096 26.3684 134.68 20.6973C135.138 16.2454 137.801 13.1877 142.406 12.6322C148.941 11.8463 152.82 16.3926 152.384 22.6913C152.375 22.8265 152.303 22.8941 152.168 22.8941H137.798C137.66 22.8941 137.603 22.9626 137.629 23.0996ZM137.648 20.5529L149.418 20.4918L149.42 20.491L149.421 20.489V20.4751C149.418 19.7857 149.273 19.1038 148.995 18.4683C148.717 17.8328 148.311 17.2561 147.801 16.7713C147.291 16.2864 146.686 15.9029 146.022 15.6425C145.357 15.3822 144.646 15.2501 143.928 15.2539L143.083 15.2595C141.634 15.2671 140.247 15.8273 139.227 16.8169C138.207 17.8064 137.639 19.1443 137.646 20.5362V20.5501L137.646 20.5521L137.648 20.5529Z" fill="#1E9AD3"/>
<path d="M176.674 15.3206L173.058 15.5706C173.039 15.5721 173.021 15.5698 173.003 15.5636C172.985 15.5574 172.969 15.5476 172.955 15.5347C172.942 15.5219 172.931 15.5063 172.924 15.4891C172.917 15.4718 172.913 15.4532 172.914 15.4345L172.941 13.2877C172.943 13.1717 172.987 13.0603 173.065 12.9747C173.144 12.8892 173.251 12.8355 173.366 12.8239C174.622 12.7054 175.903 12.6369 177.21 12.6184C178.737 12.5934 179.696 12.9933 179.704 14.6513C179.732 19.3633 179.743 24.0772 179.737 28.7929C179.737 28.8873 179.784 28.9346 179.879 28.9346H184.817C184.915 28.9346 184.963 28.9846 184.961 29.0845L184.889 31.5063C184.887 31.597 184.841 31.6424 184.75 31.6424H171.614C171.521 31.6424 171.475 31.5961 171.475 31.5035V29.0345C171.475 28.9605 171.511 28.9235 171.583 28.9235L176.635 28.9373C176.659 28.9377 176.683 28.9332 176.706 28.9242C176.729 28.9151 176.749 28.9017 176.766 28.8846C176.784 28.8676 176.798 28.8472 176.807 28.8248C176.816 28.8024 176.821 28.7784 176.821 28.754V15.4567C176.821 15.3604 176.772 15.3151 176.674 15.3206Z" fill="#1E9AD3"/>
<path d="M204.549 23.0857C204.641 26.3128 206.532 28.7929 209.745 29.2928C212.247 29.6816 214.933 28.9151 216.138 26.5378C216.377 26.062 216.611 25.5815 216.841 25.0964C216.878 25.0168 216.941 24.977 217.03 24.977H219.782C219.889 24.977 219.927 25.0288 219.896 25.1325C218.409 30.0963 215 32.344 209.667 31.8756C203.133 31.3007 200.472 25.3658 201.711 19.5059C202.685 14.9123 206.168 12.4434 210.828 12.585C216.802 12.7656 219.563 16.9231 219.143 22.7413C219.136 22.8395 219.082 22.8885 218.982 22.8885L204.724 22.9052C204.604 22.9052 204.545 22.9654 204.549 23.0857ZM204.599 20.5362L216.18 20.4973C216.192 20.4973 216.204 20.4924 216.213 20.4835C216.222 20.4747 216.227 20.4627 216.227 20.4501V20.4168C216.225 19.7366 216.085 19.0634 215.814 18.4358C215.543 17.8082 215.147 17.2384 214.648 16.759C214.15 16.2796 213.558 15.8999 212.908 15.6416C212.258 15.3834 211.562 15.2517 210.859 15.2539L209.887 15.2595C208.468 15.2641 207.108 15.8141 206.108 16.7886C205.107 17.763 204.547 19.0821 204.552 20.4557V20.489C204.552 20.5015 204.557 20.5135 204.566 20.5224C204.574 20.5312 204.586 20.5362 204.599 20.5362Z" fill="#1E9AD3"/>
<path d="M104.108 12.9628L104.122 14.6458C100.713 14.6272 97.3074 14.6245 93.9044 14.6374C92.588 14.643 91.5975 14.7726 90.9328 15.0262C84.5618 17.4619 83.8981 26.2823 90.0302 29.3595C92.2742 30.487 95.5819 30.4287 98.1036 30.2787C100.198 30.1528 102.298 30.0741 104.405 30.0427C104.497 30.0411 104.587 30.0656 104.665 30.1133C104.743 30.161 104.806 30.2299 104.847 30.3121C105.43 31.4924 104.469 31.9256 103.464 31.9228C100.277 31.9191 97.0908 31.9182 93.9044 31.9201C92.277 31.9219 91.0522 31.7951 90.2301 31.5396C84.634 29.8011 82.3956 21.9498 85.6144 17.2924C87.3085 14.8374 89.122 13.1794 92.1409 12.9183C96.029 12.5851 100.018 12.5999 104.108 12.9628Z" fill="#242F63"/>
<path d="M105.771 12.9433C110.182 13.9265 113.314 17.4868 113.278 22.0637C113.267 23.2912 111.765 23.2912 111.562 22.1387C111.356 20.9806 111.212 19.6919 110.704 18.6866C109.698 16.7055 108.068 15.4123 105.813 14.8068C105.641 14.3773 105.627 13.7561 105.771 12.9433Z" fill="#242F63"/>
<path d="M91.491 26.0241C90.6383 25.9046 89.8135 24.7827 89.4969 24.0772C88.4249 21.6888 90.0412 18.3534 92.8462 18.3812C92.9492 18.383 93.0508 18.4053 93.1452 18.4468C93.2396 18.4882 93.3249 18.5481 93.3961 18.6228C93.8238 19.0745 93.8229 19.5328 93.3933 19.9975C93.3618 20.0318 93.3236 20.0593 93.2811 20.0784C93.2387 20.0975 93.1927 20.1078 93.1462 20.1086C91.4817 20.1475 90.7254 20.9834 90.8772 22.6164C91.0216 24.1744 92.2769 24.4355 93.6877 24.4244C95.9188 24.404 98.147 24.4151 100.373 24.4577C100.484 24.4596 100.574 24.5022 100.645 24.5855C100.934 24.9317 101.032 25.3362 100.939 25.7991C100.917 25.9065 100.858 25.9852 100.761 26.0352L100.192 26.3212C100.166 26.3341 100.138 26.3416 100.109 26.3435C97.2241 26.5286 94.3515 26.4221 91.491 26.0241Z" fill="#1E9AD3"/>
<path d="M117.927 20.0864C117.041 20.0975 116.925 18.6005 117.977 18.5256C119.964 18.3867 122.264 18.345 124.879 18.4006C129.772 18.5061 130.744 24.5632 126.295 26.249C125.451 26.5693 124.904 26.3545 124.654 25.6047C124.605 25.4596 124.613 25.3016 124.676 25.1625C124.739 25.0234 124.852 24.9135 124.993 24.8548C126.589 24.1883 127.992 23.8273 127.331 21.6305C127.022 20.6085 126.345 20.0919 125.301 20.0808C122.844 20.053 120.386 20.0549 117.927 20.0864Z" fill="#242F63"/>
</svg>
